<?xml version="1.0" encoding="UTF-8" standalone="no"?>
<!-- Created with Inkscape (http://www.inkscape.org/) -->

<svg
   version="1.1"
   id="svg182"
   width="1647.4661"
   height="586.08417"
   viewBox="0 0 1647.4661 586.08417"
   sodipodi:docname="luxe_logo_transparent.svg"
   inkscape:version="1.2 (dc2aedaf03, 2022-05-15)"
   xmlns:inkscape="http://www.inkscape.org/namespaces/inkscape"
   xmlns:sodipodi="http://sodipodi.sourceforge.net/DTD/sodipodi-0.dtd"
   xmlns="http://www.w3.org/2000/svg"
   xmlns:svg="http://www.w3.org/2000/svg">
  <defs
     id="defs186">
    <inkscape:path-effect
       effect="mirror_symmetry"
       start_point="994,322.95508"
       end_point="994,338.36156"
       center_point="995.80469,330.65832"
       id="path-effect5360"
       is_visible="true"
       lpeversion="1.2"
       lpesatellites=""
       mode="free"
       discard_orig_path="false"
       fuse_paths="true"
       oposite_fuse="false"
       split_items="false"
       split_open="false"
       link_styles="false" />
    <inkscape:path-effect
       effect="mirror_symmetry"
       start_point="994,307.2499"
       end_point="994,357.76992"
       center_point="997.00274,332.50991"
       id="path-effect5344"
       is_visible="true"
       lpeversion="1.2"
       lpesatellites=""
       mode="free"
       discard_orig_path="false"
       fuse_paths="true"
       oposite_fuse="false"
       split_items="false"
       split_open="false"
       link_styles="false" />
    <inkscape:path-effect
       effect="mirror_symmetry"
       start_point="1379.9,353.14847"
       end_point="1379.9,322.97847"
       center_point="1379.9,338.06347"
       id="path-effect5340"
       is_visible="true"
       lpeversion="1.2"
       lpesatellites=""
       mode="free"
       discard_orig_path="false"
       fuse_paths="true"
       oposite_fuse="false"
       split_items="false"
       split_open="false"
       link_styles="false" />
    <inkscape:path-effect
       center_point="1379.923,342.5685"
       end_point="1379.923,327.484"
       start_point="1379.923,357.653"
       effect="mirror_symmetry"
       id="path-effect5336"
       is_visible="true"
       lpeversion="1.2"
       lpesatellites=""
       mode="free"
       discard_orig_path="false"
       fuse_paths="true"
       oposite_fuse="false"
       split_items="false"
       split_open="false"
       link_styles="false" />
    <inkscape:path-effect
       effect="mirror_symmetry"
       start_point="977.09546,418.23425"
       end_point="1016.0588,424.86535"
       center_point="996.57713,421.5498"
       id="path-effect4766"
       is_visible="true"
       lpeversion="1.2"
       lpesatellites=""
       mode="free"
       discard_orig_path="false"
       fuse_paths="true"
       oposite_fuse="false"
       split_items="false"
       split_open="false"
       link_styles="false" />
    <inkscape:path-effect
       effect="mirror_symmetry"
       start_point="283.01949,431.9507"
       end_point="283.01949,208.46392"
       center_point="283.01949,320.20731"
       id="path-effect3842"
       is_visible="true"
       lpeversion="1.2"
       lpesatellites=""
       mode="free"
       discard_orig_path="false"
       fuse_paths="true"
       oposite_fuse="false"
       split_items="false"
       split_open="false"
       link_styles="false" />
  </defs>
  <sodipodi:namedview
     id="namedview184"
     pagecolor="#505050"
     bordercolor="#eeeeee"
     borderopacity="1"
     inkscape:showpageshadow="0"
     inkscape:pageopacity="0"
     inkscape:pagecheckerboard="0"
     inkscape:deskcolor="#505050"
     showgrid="false"
     inkscape:zoom="0.70710678"
     inkscape:cx="929.84542"
     inkscape:cy="253.85133"
     inkscape:window-width="1920"
     inkscape:window-height="991"
     inkscape:window-x="-9"
     inkscape:window-y="-9"
     inkscape:window-maximized="1"
     inkscape:current-layer="layer1" />
  <g
     inkscape:groupmode="layer"
     id="layer1"
     inkscape:label="Logo"
     style="display:inline;fill:#000000;fill-opacity:1"
     transform="translate(78.26434,-1.8113614)">
    <g
       inkscape:groupmode="layer"
       id="layer4"
       inkscape:label="Co"
       style="display:inline;fill:#000000;fill-opacity:1">
      <path
         id="path4820"
         style="fill:#000000;fill-opacity:1;stroke-width:0.01"
         inkscape:label="dot"
         d="m 1128.625,441.14999 a 7.5,7.5 0 0 1 -7.5,7.5 7.5,7.5 0 0 1 -7.5,-7.5 7.5,7.5 0 0 1 7.5,-7.5 7.5,7.5 0 0 1 7.5,7.5 z" />
      <path
         id="path3916"
         style="display:inline;fill:#000000;fill-opacity:1;stroke:none;stroke-width:0.0102016;stroke-dasharray:none;stroke-opacity:1"
         d="m 1067.3496,395.02539 a 26.523912,26.523912 0 0 0 -26.5234,26.52539 26.523912,26.523912 0 0 0 26.5234,26.52344 26.523912,26.523912 0 0 0 26.5234,-26.52344 26.523912,26.523912 0 0 0 -26.5234,-26.52539 z m 0,12.125 a 14.400309,14.400309 0 0 1 14.4004,14.40039 14.400309,14.400309 0 0 1 -14.4004,14.40039 14.400309,14.400309 0 0 1 -14.4004,-14.40039 14.400309,14.400309 0 0 1 14.4004,-14.40039 z"
         inkscape:label="O" />
      <path
         id="path3916-5"
         style="display:inline;fill:#000000;fill-opacity:1;stroke:none;stroke-width:0.0102016;stroke-dasharray:none;stroke-opacity:1"
         inkscape:label="C"
         d="m 970.60156,421.55078 c 2.6e-4,14.64838 11.87506,26.52318 26.52344,26.52344 5.8734,-0.001 11.3966,-1.93366 15.8683,-5.27401 1.118,-0.83508 2.1702,-1.75815 3.1457,-2.76101 0.9756,-1.00286 1.8744,-2.08552 2.6856,-3.23978 0.8113,-1.15426 1.5349,-2.38013 2.1599,-3.66941 0.3125,-0.64464 0.6003,-1.30514 0.8621,-1.98047 0.1309,-0.33767 0.2554,-0.67904 0.3731,-1.02399 0.059,-0.17248 0.121,-0.39447 0.1326,-0.56697 0.012,-0.17512 0.012,-0.4785 0.012,-0.4785 h -12.9746 c -9.3682,13.00759 -26.31173,4.12823 -26.66599,-7.5293 z m 1.46268,-8.5945 c 4.84586,-13.82363 19.98027,-21.10178 33.80406,-16.25641 5.5424,1.94384 10.1154,5.59474 13.2303,10.22625 0.7789,1.1579 1.4665,2.37707 2.0553,3.64616 0.589,1.26912 1.079,2.58815 1.4627,3.94577 0.3838,1.35765 0.6612,2.75387 0.8245,4.17732 0.082,0.71172 0.1348,1.43024 0.1584,2.15415 0.012,0.36196 0.016,0.7253 0.013,1.08976 -0,0.18229 -0.016,0.41229 -0.062,0.57892 -0.047,0.16923 -0.147,0.45553 -0.147,0.45553 l -12.2441,-4.29194 c -4.538,-15.37425 -23.46488,-12.59961 -27.65545,-1.71556 z"
         inkscape:path-effect="#path-effect4766"
         inkscape:original-d="m 970.60156,421.55078 c 2.6e-4,14.64838 11.87506,26.52318 26.52344,26.52344 5.8734,-0.001 11.3966,-1.93366 15.8683,-5.27401 1.118,-0.83508 2.1702,-1.75815 3.1457,-2.76101 0.9756,-1.00286 1.8744,-2.08552 2.6856,-3.23978 0.8113,-1.15426 1.5349,-2.38013 2.1599,-3.66941 0.3125,-0.64464 0.6003,-1.30514 0.8621,-1.98047 0.1309,-0.33767 0.2554,-0.67904 0.3731,-1.02399 0.059,-0.17248 0.121,-0.39447 0.1326,-0.56697 0.012,-0.17512 0.012,-0.4785 0.012,-0.4785 h -12.9746 c -9.3682,13.00759 -26.31173,4.12823 -26.66599,-7.5293 z"
         class="UnoptimicedTransforms"
         sodipodi:nodetypes="ccssssssscccc" />
    </g>
    <g
       inkscape:groupmode="layer"
       id="layer3"
       inkscape:label="Artistry"
       style="fill:#000000;fill-opacity:1">
      <path
         id="path3690-7"
         style="display:inline;fill:#000000;fill-opacity:1;stroke:none;stroke-width:0.00790203;stroke-dasharray:none;stroke-opacity:1"
         class="UnoptimicedTransforms"
         inkscape:label="Y"
         d="m 1369.5996,307.09961 -14.2539,0.006 c 0,0.11517 0.024,0.32799 0.1563,0.55664 6.4926,9.70924 12.8991,19.13852 18.7128,27.81641 v 22.17382 h 5.6856 5.6855 v -22.17382 c 5.8137,-8.67789 12.2203,-18.10717 18.7129,-27.81641 0.1323,-0.22865 0.1563,-0.44147 0.1563,-0.55664 l -14.2539,-0.006 -10.3008,16.94141 z"
         inkscape:path-effect="#path-effect5340"
         inkscape:original-d="m 1369.5996,307.09961 -14.2548,0.006 c 0,0.11517 0.024,0.32799 0.1563,0.55664 6.4926,9.70924 12.9,19.13821 18.7137,27.8161 v 22.17413 h 5.709 c 0,-11.11603 0.049,-28.20104 0.049,-33.49117 z"
         sodipodi:nodetypes="cccccccc"
         transform="translate(0,0.04672)" />
      <path
         id="path3690-28-7-6"
         style="display:inline;fill:#000000;fill-opacity:1;stroke:none;stroke-width:0.0104315;stroke-dasharray:none;stroke-opacity:1"
         inkscape:label="R"
         d="m 1303.2051,307.19922 v 6.9707 43.4375 h 11.916 v -16.13476 l 10.6035,16.13476 h 15.0703 l -13.0019,-17.0039 v -1.70313 c 6.4553,-2.30186 10.7777,-8.45351 10.7949,-15.36328 0,-8.85561 -6.9962,-16.09646 -15.7676,-16.32617 v -0.0117 h -0.4199 z m 12.25,9.25781 c 1.3524,7e-5 2.6655,0 3.8105,0 3.8703,-6.4e-4 7.0081,3.15288 7.0078,7.04297 3e-4,3.89009 -3.1375,7.04361 -7.0078,7.04297 -1.4186,-0.002 -2.4969,-6e-5 -3.8105,0 z"
         sodipodi:nodetypes="cccccccccccccccccccc" />
      <path
         id="path3690-8-8"
         style="fill:#000000;fill-opacity:1;stroke:none;stroke-width:0.0102687;stroke-dasharray:none;stroke-opacity:1"
         inkscape:label="T"
         d="m 1243.065,307.14346 v 10.81641 h 15.0977 v 39.74219 h 11.6152 v -39.74219 h 13.9571 v -10.81641 z" />
      <path
         id="path5776"
         style="font-weight:bold;font-size:680.315px;font-family:'Franklin Gothic Demi';-inkscape-font-specification:'Franklin Gothic Demi Bold';display:inline;fill:#000000;fill-opacity:1;stroke-width:0.00116136"
         inkscape:label="S"
         d="m 1204.3639,305.99402 c -6.0018,0 -10.7614,1.56361 -14.278,4.69077 -3.4902,3.12714 -5.2352,6.96726 -5.2352,11.52037 0,4.50311 1.4675,7.93057 4.4025,10.28218 2.9349,2.3266 7.8529,4.16524 14.7542,5.51615 3.7014,0.72551 6.2002,1.50108 7.4957,2.32666 1.2956,0.82555 1.881,2.0515 1.881,3.55253 0,1.47602 -0.9638,3.31439 -2.3917,4.39013 -1.4278,1.05072 -3.0335,1.63852 -5.9418,1.63852 -6.0286,0 -8.7367,-4.39311 -10.0587,-9.17141 -3.9452,-0.0193 -12.2398,-0.089 -12.2398,-0.089 0,0 0.053,1.37652 0.078,2.46791 0.3249,1.78459 0.7489,2.70696 1.0368,3.63543 1.5868,3.90411 2.5678,5.16642 6.3676,8.41104 4.7258,2.87662 9.2712,4.50256 14.8237,4.50256 7.4034,0 11.9901,-2.0334 15.7447,-5.41071 3.7811,-3.37735 5.3513,-6.59788 5.3513,-11.22607 0,-2.95204 -0.6982,-6.92891 -2.4697,-9.30554 -1.7451,-2.40165 -4.6956,-4.05199 -7.2602,-5.12771 -2.5649,-1.07576 -5.9475,-1.96204 -11.4734,-3.01278 -3.3053,-0.62542 -5.301,-1.62868 -6.2528,-2.47927 -0.9256,-0.85057 -1.3883,-1.88869 -1.3883,-3.11452 0,-2.50258 3.179,-4.45914 7.757,-4.2622 5.8115,0.25 7.0911,2.39492 8.3347,6.76424 l 11.5211,0.0575 0.066,-2.314 c -0.1988,-0.90463 -0.3059,-1.50061 -0.3894,-2.01069 -2.5252,-8.1889 -9.5963,-12.23221 -20.2257,-12.23221 z"
         sodipodi:nodetypes="scsccsscscccccscscsccssccccss" />
      <path
         style="fill:#000000;fill-opacity:1;stroke:none;stroke-width:0.0101206;stroke-dasharray:none;stroke-opacity:1"
         d="m 1161.584,307.23826 v 50.36901 h -11.216 v -50.36901 c 3.7386,0 7.4774,0 11.216,0 z"
         id="path3690"
         sodipodi:nodetypes="ccccc"
         inkscape:label="I" />
      <path
         id="path3690-8"
         style="fill:#000000;fill-opacity:1;stroke:none;stroke-width:0.0102687;stroke-dasharray:none;stroke-opacity:1"
         inkscape:label="T"
         d="m 1090.1191,307.14347 v 10.81641 h 15.0977 v 39.74219 h 11.6152 v -39.74219 h 13.9571 v -10.81641 z" />
      <path
         id="path3690-28-7"
         style="display:inline;fill:#000000;fill-opacity:1;stroke:none;stroke-width:0.0104315;stroke-dasharray:none;stroke-opacity:1"
         inkscape:label="R"
         d="m 1038.9922,307.19922 v 6.9707 43.4375 h 11.916 v -16.13476 l 10.6035,16.13476 h 15.0703 l -13.0019,-17.0039 v -1.70313 c 6.4553,-2.30186 10.7777,-8.45351 10.7949,-15.36328 0,-8.85561 -6.9962,-16.09646 -15.7676,-16.32617 v -0.0117 h -0.4199 z m 12.25,9.25781 c 1.288,5e-5 2.6506,0 3.8105,0 3.8703,-6.4e-4 7.0081,3.15288 7.0078,7.04297 3e-4,3.89009 -3.1375,7.04361 -7.0078,7.04297 -1.2897,-0.005 -2.6455,2.6e-4 -3.8105,0 z"
         sodipodi:nodetypes="cccccccccccccccccccc" />
      <path
         id="path5342"
         style="display:inline;fill:#000000;fill-opacity:1;stroke:none;stroke-width:0.0100398;stroke-dasharray:none;stroke-opacity:1"
         class="UnoptimicedTransforms"
         inkscape:label="A"
         d="m 988.70703,307.25 -20.18555,50.51953 h 12.60547 l 3.51172,-9.93945 h 18.72263 l 3.5117,9.93945 h 12.6055 L 999.29297,307.25 H 994 Z m 4.71485,15.71289 c 0.38541,0 0.77083,0 1.15624,0 l 5.31836,15.05664 h -11.79296 z"
         transform="translate(0,-0.087)"
         sodipodi:nodetypes="ccccccccccccccc" />
    </g>
    <g
       inkscape:groupmode="layer"
       id="layer2"
       inkscape:label="Hair"
       transform="translate(-122.33839,-73.386932)"
       style="fill:#000000;fill-opacity:1">
      <path
         id="path3690-28-7-69"
         style="display:inline;fill:#000000;fill-opacity:1;stroke:none;stroke-width:0.0104315;stroke-dasharray:none;stroke-opacity:1"
         inkscape:label="R"
         d="m 1137.305,217.30371 v 6.9707 43.4375 h 11.916 v -16.13476 l 10.6035,16.13476 h 15.0703 l -13.0019,-17.0039 v -1.70313 c 6.4553,-2.30186 10.7777,-8.45351 10.7949,-15.36328 0,-8.85561 -6.9962,-16.09646 -15.7676,-16.32617 v -0.0117 h -0.4199 z m 12.25,9.25781 c 1.2911,6e-5 2.6593,0 3.8105,0 3.8703,-6.4e-4 7.0081,3.15288 7.0078,7.04297 3e-4,3.89009 -3.1375,7.04361 -7.0078,7.04297 -1.2919,-0.005 -2.6493,2.6e-4 -3.8105,0 z"
         transform="translate(122.33839,73.386932)"
         sodipodi:nodetypes="cccccccccccccccccccc" />
      <path
         style="fill:#000000;fill-opacity:1;stroke:none;stroke-width:0.0101206;stroke-dasharray:none;stroke-opacity:1"
         d="m 1235.9944,290.71024 v 50.36901 h -11.216 v -50.36901 c 3.7386,0 7.4774,0 11.216,0 z"
         id="path3690-2"
         sodipodi:nodetypes="ccccc"
         inkscape:label="I" />
      <path
         id="path5342-4"
         style="display:inline;fill:#000000;fill-opacity:1;stroke:none;stroke-width:0.0100398;stroke-dasharray:none;stroke-opacity:1"
         class="UnoptimicedTransforms"
         inkscape:label="A"
         d="m 988.70703,307.25 -20.18555,50.51953 h 12.60547 l 3.51172,-9.93945 h 18.72263 l 3.5117,9.93945 h 12.6055 L 999.29297,307.25 H 994 Z m 4.71485,15.71289 c 0.38541,0 0.77083,0 1.15624,0 l 5.31836,15.05664 h -11.79296 z"
         transform="translate(185.75593,-16.61502)"
         sodipodi:nodetypes="ccccccccccccccc" />
      <path
         id="path3690-8-0"
         style="fill:#000000;fill-opacity:1;stroke:none;stroke-width:0.0104212;stroke-dasharray:none;stroke-opacity:1"
         inkscape:label="H"
         d="m 1094.3052,290.75998 v 50.26953 h 11.916 v -19.74219 h 16.5918 v 19.74219 h 11.916 v -50.26953 h -11.916 v 19.71094 h -16.5918 v -19.71094 z" />
    </g>
    <g
       id="g597"
       inkscape:groupmode="layer"
       inkscape:label="Luxe"
       style="display:inline;fill:#000000;fill-opacity:1">
      <path
         id="rect3646"
         style="display:inline;fill:#000000;fill-opacity:1;stroke:none;stroke-width:0.00973403;stroke-dasharray:none;stroke-opacity:1"
         inkscape:label="e"
         d="m 762.29297,203.58594 c -62.99387,6e-5 -114.06048,51.06667 -114.06055,114.06054 6e-5,62.99388 51.06667,114.06049 114.06055,114.06055 40.26206,-0.0908 77.49372,-21.40159 97.96289,-56.07226 l -28.19141,-11.96094 c -15.4497,23.4916 -41.65488,37.66483 -69.77148,37.73633 -44.56911,-0.1377 -81.22547,-35.15193 -83.4043,-79.66797 66.38438,0 138.70049,0 197.17188,0 0.12222,-1.36337 0.2199,-2.72883 0.29297,-4.09571 -7e-5,-62.99387 -51.06668,-114.06048 -114.06055,-114.06054 z m 0,30.29687 c 37.62742,0.0147 70.62741,25.11822 80.68359,61.37696 H 681.90234 c 10.02689,-36.15424 42.87202,-61.23097 80.39063,-61.37696 z"
         sodipodi:nodetypes="sscccccccscccc" />
      <path
         id="path602"
         style="display:inline;fill:#000000;fill-opacity:1;stroke:none;stroke-width:0.01;stroke-dasharray:none;stroke-opacity:1"
         inkscape:label="x"
         d="m 464.41602,202.74805 c -2.50928,2.08807 -5.08615,4.22193 -7.24219,6.00976 l 63.46875,76.25586 -9.43164,11.33008 -72.7793,-87.57813 -35.00195,0.0664 90.27929,108.53516 -90.86523,109.14843 h 35.64063 l 72.91992,-87.875 158.57617,190.64649 20.45508,-17.2793 -161.56446,-194.41601 9.42969,-11.36328 163.3711,196.28125 7.04687,-5.95508 L 544.375,298.9082 l 75.05078,-90.44336 -35.00195,-0.0664 -57.6875,69.29687 z"
         sodipodi:nodetypes="ccccccccccccccccccccc" />
      <path
         style="fill:#000000;fill-opacity:1;stroke-width:7.66488"
         d="M 201.50391,208.46875 V 354.625 c 0,51.2896 40.92112,77.08934 81.51562,77.32422 40.5945,-0.23488 81.51563,-26.03462 81.51563,-77.32422 V 208.46875 l -29.00196,0.0391 -1.625,145.72461 c -0.9375,19.22725 -11.18844,30.2675 -19.98632,37.4375 -8.64674,7.04682 -21.24799,10.20555 -30.90235,10.3086 -9.65436,-0.10305 -22.25561,-3.26178 -30.90234,-10.3086 -8.79789,-7.17 -19.04883,-18.21025 -19.98633,-37.4375 l -1.625,-145.72461 z"
         id="path594"
         sodipodi:nodetypes="ccsccccc"
         inkscape:label="u"
         inkscape:path-effect="#path-effect3842"
         inkscape:original-d="m 230.50576,208.50811 1.625,145.72336 c 0.9375,19.22725 11.18817,30.26779 19.98606,37.43779 8.79789,7.17 21.6901,10.31477 31.40624,10.31118 0,5.77249 -0.004,26.14704 -0.004,29.97024 C 242.76142,431.92545 201.50334,406.125 201.50334,354.625 V 208.46875 Z"
         class="UnoptimicedTransforms" />
      <path
         style="fill:#000000;fill-opacity:1;stroke-width:7.66488"
         d="M 118.53991,60.421195 V 457.4603 h 351.01475 v 26.11168 H 86.482263 V 60.419777"
         id="path591"
         sodipodi:nodetypes="cccccc"
         inkscape:label="L" />
    </g>
  </g>
</svg>
