<?xml version="1.0" encoding="UTF-8" standalone="no"?>
<!-- Created with Inkscape (http://www.inkscape.org/) -->

<svg
   version="1.1"
   id="svg182"
   width="789.87128"
   height="468.867"
   viewBox="0 0 789.87128 468.867"
   sodipodi:docname="luxe_icon_transparent_zoom.svg"
   inkscape:version="1.2 (dc2aedaf03, 2022-05-15)"
   inkscape:export-filename="luxe_icon_transparent_zoom.png"
   inkscape:export-xdpi="1200"
   inkscape:export-ydpi="1200"
   xmlns:inkscape="http://www.inkscape.org/namespaces/inkscape"
   xmlns:sodipodi="http://sodipodi.sourceforge.net/DTD/sodipodi-0.dtd"
   xmlns="http://www.w3.org/2000/svg"
   xmlns:svg="http://www.w3.org/2000/svg">
  <defs
     id="defs186">
    <inkscape:path-effect
       effect="mirror_symmetry"
       start_point="283.52,431.9507"
       end_point="283.52,208.46392"
       center_point="283.52,320.20731"
       id="path-effect3842"
       is_visible="true"
       lpeversion="1.2"
       lpesatellites=""
       mode="free"
       discard_orig_path="false"
       fuse_paths="true"
       oposite_fuse="false"
       split_items="false"
       split_open="false"
       link_styles="false" />
  </defs>
  <sodipodi:namedview
     id="namedview184"
     pagecolor="#505050"
     bordercolor="#eeeeee"
     borderopacity="1"
     inkscape:showpageshadow="0"
     inkscape:pageopacity="0"
     inkscape:pagecheckerboard="0"
     inkscape:deskcolor="#505050"
     showgrid="false"
     inkscape:zoom="1.6529197"
     inkscape:cx="306.42747"
     inkscape:cy="216.88894"
     inkscape:window-width="2400"
     inkscape:window-height="1261"
     inkscape:window-x="-9"
     inkscape:window-y="-9"
     inkscape:window-maximized="1"
     inkscape:current-layer="g597" />
  <g
     inkscape:groupmode="layer"
     id="layer1"
     inkscape:label="Icon"
     style="display:inline;fill:#ffffff;fill-opacity:1"
     transform="translate(4.2097644,-21.062859)">
    <g
       id="g597"
       inkscape:groupmode="layer"
       inkscape:label="Luxe"
       style="display:inline;fill:#ffffff;fill-opacity:1">
      <path
         id="rect3646"
         style="display:inline;fill:#ffffff;fill-opacity:1;stroke:none;stroke-width:0.00973403;stroke-dasharray:none;stroke-opacity:1"
         inkscape:label="e"
         d="m 671.60094,164.22902 c -62.99387,6e-5 -114.06048,51.06667 -114.06055,114.06054 6e-5,62.99388 51.06667,114.06049 114.06055,114.06055 40.26206,-0.0908 77.49372,-21.40159 97.96289,-56.07226 l -28.19141,-11.96094 c -15.4497,23.4916 -41.65488,37.66483 -69.77148,37.73633 -44.56911,-0.1377 -81.22547,-35.15193 -83.4043,-79.66797 66.38438,0 138.70049,0 197.17188,0 0.12222,-1.36337 0.2199,-2.72883 0.29297,-4.09571 -7e-5,-62.99387 -51.06668,-114.06048 -114.06055,-114.06054 z m 0,30.29687 c 37.62742,0.0147 70.62741,25.11822 80.68359,61.37696 H 591.21031 c 10.02689,-36.15424 42.87202,-61.23097 80.39063,-61.37696 z"
         sodipodi:nodetypes="sscccccccscccc" />
      <path
         id="path602"
         style="display:inline;fill:#ffffff;fill-opacity:1;stroke:none;stroke-width:0.01;stroke-dasharray:none;stroke-opacity:1"
         inkscape:label="x"
         d="m 373.72399,163.39113 c -2.50928,2.08807 -5.08615,4.22193 -7.24219,6.00976 l 63.46875,76.25586 -9.43164,11.33008 -72.7793,-87.57813 -35.00195,0.0664 90.27929,108.53516 -90.86523,109.14843 h 35.64063 l 72.91992,-87.875 158.57617,190.64649 20.45508,-17.2793 -161.56446,-194.41601 9.42969,-11.36328 163.3711,196.28125 7.04687,-5.95508 -164.34375,-197.64648 75.05078,-90.44336 -35.00195,-0.0664 -57.6875,69.29687 z"
         sodipodi:nodetypes="ccccccccccccccccccccc" />
      <path
         style="fill:#ffffff;fill-opacity:1;stroke-width:7.66488"
         d="M 201.50391,208.46875 V 354.625 c 0,51.5 41.25798,77.30094 82.01659,77.30094 40.75862,0 82.01661,-25.80094 82.01661,-77.30094 V 208.46875 l -29.00195,0.0391 -1.625,145.72461 c -0.9375,19.22725 -11.18844,30.2675 -19.98633,37.4375 -8.79697,7.16925 -21.68851,10.31348 -31.4043,10.31055 -9.71579,0.003 -22.60538,-3.1413 -31.40234,-10.31055 -8.79789,-7.17 -19.04883,-18.21025 -19.98633,-37.4375 l -1.625,-145.72461 z"
         id="path594"
         sodipodi:nodetypes="cccccccscsccc"
         inkscape:label="u"
         class="UnoptimicedTransforms"
         transform="translate(-90.692027,-39.356918)" />
      <path
         style="fill:#ffffff;fill-opacity:1;stroke-width:7.66488"
         d="M 27.847883,21.064277 V 418.10338 H 378.86263 v 26.11168 H -4.2097644 V 21.062859 Z"
         id="path591"
         sodipodi:nodetypes="ccccccc"
         inkscape:label="L" />
    </g>
  </g>
</svg>
