<?xml version="1.0" encoding="UTF-8" standalone="no"?>
<!-- Created with Inkscape (http://www.inkscape.org/) -->

<svg
   version="1.1"
   id="svg182"
   width="987.33905"
   height="586.08417"
   viewBox="0 0 987.33905 586.08417"
   sodipodi:docname="luxe_icon_transparent.svg"
   inkscape:version="1.2 (dc2aedaf03, 2022-05-15)"
   inkscape:export-filename="luxe_icon_transparent_plain.svg"
   inkscape:export-xdpi="96"
   inkscape:export-ydpi="96"
   xmlns:inkscape="http://www.inkscape.org/namespaces/inkscape"
   xmlns:sodipodi="http://sodipodi.sourceforge.net/DTD/sodipodi-0.dtd"
   xmlns="http://www.w3.org/2000/svg"
   xmlns:svg="http://www.w3.org/2000/svg">
  <defs
     id="defs186">
    <inkscape:path-effect
       effect="mirror_symmetry"
       start_point="283.52,431.9507"
       end_point="283.52,208.46392"
       center_point="283.52,320.20731"
       id="path-effect3842"
       is_visible="true"
       lpeversion="1.2"
       lpesatellites=""
       mode="free"
       discard_orig_path="false"
       fuse_paths="true"
       oposite_fuse="false"
       split_items="false"
       split_open="false"
       link_styles="false" />
  </defs>
  <sodipodi:namedview
     id="namedview184"
     pagecolor="#505050"
     bordercolor="#eeeeee"
     borderopacity="1"
     inkscape:showpageshadow="0"
     inkscape:pageopacity="0"
     inkscape:pagecheckerboard="0"
     inkscape:deskcolor="#505050"
     showgrid="false"
     inkscape:zoom="0.58439536"
     inkscape:cx="88.125272"
     inkscape:cy="156.57209"
     inkscape:window-width="1920"
     inkscape:window-height="991"
     inkscape:window-x="-9"
     inkscape:window-y="-9"
     inkscape:window-maximized="1"
     inkscape:current-layer="layer1" />
  <g
     inkscape:groupmode="layer"
     id="layer1"
     inkscape:label="Icon"
     style="display:inline;fill:#000000;fill-opacity:1"
     transform="translate(12.251643,-1.8113614)">
    <g
       id="g597"
       inkscape:groupmode="layer"
       inkscape:label="Luxe"
       style="display:inline;fill:#000000;fill-opacity:1">
      <path
         id="rect3646"
         style="display:inline;fill:#000000;fill-opacity:1;stroke:none;stroke-width:0.00973403;stroke-dasharray:none;stroke-opacity:1"
         inkscape:label="e"
         d="m 762.29297,203.58594 c -62.99387,6e-5 -114.06048,51.06667 -114.06055,114.06054 6e-5,62.99388 51.06667,114.06049 114.06055,114.06055 40.26206,-0.0908 77.49372,-21.40159 97.96289,-56.07226 l -28.19141,-11.96094 c -15.4497,23.4916 -41.65488,37.66483 -69.77148,37.73633 -44.56911,-0.1377 -81.22547,-35.15193 -83.4043,-79.66797 66.38438,0 138.70049,0 197.17188,0 0.12222,-1.36337 0.2199,-2.72883 0.29297,-4.09571 -7e-5,-62.99387 -51.06668,-114.06048 -114.06055,-114.06054 z m 0,30.29687 c 37.62742,0.0147 70.62741,25.11822 80.68359,61.37696 H 681.90234 c 10.02689,-36.15424 42.87202,-61.23097 80.39063,-61.37696 z"
         sodipodi:nodetypes="sscccccccscccc" />
      <path
         id="path602"
         style="display:inline;fill:#000000;fill-opacity:1;stroke:none;stroke-width:0.01;stroke-dasharray:none;stroke-opacity:1"
         inkscape:label="x"
         d="m 464.41602,202.74805 c -2.50928,2.08807 -5.08615,4.22193 -7.24219,6.00976 l 63.46875,76.25586 -9.43164,11.33008 -72.7793,-87.57813 -35.00195,0.0664 90.27929,108.53516 -90.86523,109.14843 h 35.64063 l 72.91992,-87.875 158.57617,190.64649 20.45508,-17.2793 -161.56446,-194.41601 9.42969,-11.36328 163.3711,196.28125 7.04687,-5.95508 L 544.375,298.9082 l 75.05078,-90.44336 -35.00195,-0.0664 -57.6875,69.29687 z"
         sodipodi:nodetypes="ccccccccccccccccccccc" />
      <path
         style="fill:#000000;fill-opacity:1;stroke-width:7.66488"
         d="M 201.50391,208.46875 V 354.625 c 0,51.5 41.25798,77.30094 82.01562,77.32617 0,-1.20382 -5.4e-4,-4.04924 0,-7.5625 5.4e-4,3.51326 0.002,6.35868 0.002,7.5625 40.75764,-0.0252 82.01563,-25.82617 82.01563,-77.32617 V 208.46875 l -29.00195,0.0391 -1.625,145.72461 c -0.9375,19.22725 -11.18844,30.2675 -19.98633,37.4375 -8.79697,7.16925 -21.68851,10.31348 -31.4043,10.31055 -9.71579,0.003 -22.60538,-3.1413 -31.40234,-10.31055 -8.79789,-7.17 -19.04883,-18.21025 -19.98633,-37.4375 l -1.625,-145.72461 z"
         id="path594"
         sodipodi:nodetypes="ccsccccc"
         inkscape:label="u"
         inkscape:path-effect="#path-effect3842"
         inkscape:original-d="m 230.50576,208.50811 1.625,145.72336 c 0.9375,19.22725 11.18817,30.26779 19.98606,37.43779 8.79789,7.17 21.6901,10.31477 31.40624,10.31118 0,5.77249 -0.004,26.14704 -0.004,29.97024 C 242.76142,431.92545 201.50334,406.125 201.50334,354.625 V 208.46875 Z"
         class="UnoptimicedTransforms" />
      <path
         style="fill:#000000;fill-opacity:1;stroke-width:7.66488"
         d="M 118.53991,60.421195 V 457.4603 h 351.01475 v 26.11168 H 86.482263 V 60.419777"
         id="path591"
         sodipodi:nodetypes="cccccc"
         inkscape:label="L" />
    </g>
  </g>
</svg>
